# xmcd
#
# Track frame offsets: 
#        150
#        9326
#        14201
#        25076
#        36232
#        47095
#        51340
#        61727
#        69527
#        80623
#        92453
#        100766
#
# Disc length: 1554 seconds
#
# Revision: 0
# Processed by: cddbd v1.5.2PL0 Copyright (c) Steve Scherf et al.
# Submitted via: ExactAudioCopyFreeDBPlugin 1.0
#
DISCID=9306100c
DTITLE=Tammy Wynette - Stand By Your Man
DYEAR=2007
DGENRE=Country
TTITLE0=Rocky Top
TTITLE1=You Light Up My Life
TTITLE2=Making Love
TTITLE3=Take me To Your World
TTITLE4=Womanhood
TTITLE5=Apartment #9
TTITLE6=I Don't Want To Play House
TTITLE7=Your Good Girl's Gonna Go Bad
TTITLE8=D-I-V-O-R-C-E
TTITLE9=Stand By Your Man
TTITLE10=Will The Circle Be Unbroken
TTITLE11=Let's Call It A Day Today
EXTD=
EXTT0=
EXTT1=
EXTT2=
EXTT3=
EXTT4=
EXTT5=
EXTT6=
EXTT7=
EXTT8=
EXTT9=
EXTT10=
EXTT11=
PLAYORDER=
